<?xml version="1.0" encoding="utf-8"?>
<!-- Generator: Adobe Illustrator 22.0.1, SVG Export Plug-In . SVG Version: 6.00 Build 0)  -->
<svg version="1.1" id="Layer_1" xmlns="http://www.w3.org/2000/svg" xmlns:xlink="http://www.w3.org/1999/xlink" x="0px" y="0px"
	 viewBox="0 0 27.9 27.9" style="enable-background:new 0 0 27.9 27.9;" xml:space="preserve">
<style type="text/css">
	.st0{fill:#FFFFFF;}
</style>
<g id="pause_x5F_light_1_">
	<path class="st0" d="M13.94,0C6.3,0,0,6.31,0,13.95C0,21.59,6.3,27.9,13.95,27.9c7.64,0,13.95-6.31,13.95-13.95
		C27.9,6.31,21.58,0,13.94,0z M12.36,18.13c0,1.08-0.88,1.95-1.95,1.95c-1.08,0-1.95-0.88-1.95-1.95V9.77
		c0-1.08,0.88-1.95,1.95-1.95c1.08,0,1.95,0.88,1.95,1.95V18.13z M19.45,18.13c0,1.08-0.88,1.95-1.95,1.95
		c-1.08,0-1.95-0.88-1.95-1.95V9.77c0-1.08,0.88-1.95,1.95-1.95c1.08,0,1.95,0.88,1.95,1.95V18.13z"/>
</g>
</svg>
