<?xml version="1.0" encoding="utf-8"?>
<!-- Generator: Adobe Illustrator 22.0.1, SVG Export Plug-In . SVG Version: 6.00 Build 0)  -->
<svg version="1.1" id="Layer_1" xmlns="http://www.w3.org/2000/svg" xmlns:xlink="http://www.w3.org/1999/xlink" x="0px" y="0px"
	 viewBox="0 0 36 36" style="enable-background:new 0 0 36 36;" xml:space="preserve">
<style type="text/css">
	.st0{opacity:0.7;}
	.st1{fill:#D9C569;}
</style>
<g id="pause_x5F_light_2_" class="st0">
	<path class="st1" d="M17.99,0C8.13,0,0,8.15,0,18c0,9.85,8.13,18,18,18c9.85,0,18-8.15,18-18C36,8.15,27.84,0,17.99,0z M15.94,23.4
		c0,1.39-1.13,2.52-2.52,2.52c-1.39,0-2.52-1.13-2.52-2.52V12.6c0-1.39,1.13-2.52,2.52-2.52c1.39,0,2.52,1.13,2.52,2.52V23.4z
		 M25.1,23.4c0,1.39-1.13,2.52-2.52,2.52c-1.39,0-2.52-1.13-2.52-2.52V12.6c0-1.39,1.13-2.52,2.52-2.52c1.39,0,2.52,1.13,2.52,2.52
		V23.4z"/>
</g>
</svg>
