<?xml version="1.0" encoding="utf-8"?>
<!-- Generator: Adobe Illustrator 22.0.1, SVG Export Plug-In . SVG Version: 6.00 Build 0)  -->
<svg version="1.1" id="Layer_1" xmlns="http://www.w3.org/2000/svg" xmlns:xlink="http://www.w3.org/1999/xlink" x="0px" y="0px"
	 viewBox="0 0 700 700" style="enable-background:new 0 0 700 700;" xml:space="preserve">
<g id="iOS_Homescreen">
	<g>
		<path d="M449,251c-13.1-13.1-28.4-23.3-45.4-30.4c-17-7.1-35.1-10.6-53.6-10.6c-18.9,0-37.2,3.7-54.5,11
			c-16.7,7.1-31.6,17.1-44.5,30c-13.1,13.1-23.3,28.4-30.4,45.4c-7.1,17-10.6,35.1-10.6,53.6c0,18.9,3.7,37.2,11,54.5
			c7.1,16.7,17.1,31.6,30,44.5c13.1,13.1,28.4,23.3,45.4,30.4c17,7.1,35.1,10.6,53.6,10.6c18.9,0,37.2-3.7,54.5-11
			c16.7-7.1,31.6-17.1,44.5-30c13.1-13.1,23.3-28.4,30.4-45.4c7.1-17,10.6-35.1,10.6-53.6c0-18.9-3.7-37.2-11-54.5
			C471.9,278.8,461.8,263.8,449,251z M414.7,376.8c-3.5,8.5-8.6,16.1-15.2,22.7c-6.4,6.4-13.9,11.5-22.3,15
			c-8.6,3.6-17.8,5.5-27.2,5.5c-9.3,0-18.3-1.8-26.8-5.3c-8.5-3.5-16.1-8.6-22.7-15.2c-6.4-6.4-11.5-13.9-15-22.3
			c-3.6-8.6-5.5-17.8-5.5-27.2c0-9.3,1.8-18.3,5.3-26.8c3.5-8.5,8.6-16.2,15.2-22.7c6.4-6.4,13.9-11.5,22.3-15
			c8.6-3.6,17.8-5.5,27.2-5.5c9.3,0,18.3,1.8,26.8,5.3c8.5,3.5,16.2,8.6,22.7,15.2c6.4,6.4,11.5,13.9,15,22.3
			c3.6,8.6,5.5,17.8,5.5,27.2C420,359.3,418.2,368.3,414.7,376.8z"/>
		<path d="M523.2,176.8c-22.9-22.9-49.6-40.8-79.5-53.2C414,111.3,382.5,105,350,105c-33.1,0-65.1,6.5-95.4,19.3
			c-29.2,12.3-55.4,30-77.9,52.5c-22.9,22.9-40.8,49.6-53.2,79.5C111.3,286,105,317.5,105,350c0,33.1,6.5,65.1,19.3,95.4
			c12.3,29.2,30,55.4,52.5,77.9c22.9,22.9,49.6,40.8,79.4,53.2C286,588.7,317.5,595,350,595c33.1,0,65.2-6.5,95.4-19.3
			c29.2-12.3,55.4-30,77.9-52.5c22.9-22.9,40.8-49.6,53.2-79.4C588.7,414,595,382.5,595,350c0-33.1-6.5-65.2-19.3-95.4
			C563.4,225.4,545.7,199.2,523.2,176.8z M511.7,417c-8.8,21.3-21.6,40.4-38,56.8c-16.1,16.1-34.8,28.7-55.6,37.5
			c-21.5,9.1-44.5,13.7-68.1,13.7c-23.2,0-45.8-4.5-67-13.3c-21.3-8.8-40.4-21.6-56.8-38c-16.1-16.1-28.7-34.8-37.5-55.6
			c-9.1-21.6-13.7-44.5-13.7-68.1c0-23.2,4.5-45.8,13.3-67c8.8-21.3,21.6-40.4,38-56.8c16.1-16.1,34.8-28.7,55.6-37.5
			c21.6-9.1,44.5-13.7,68.1-13.7c23.2,0,45.8,4.5,67,13.3c21.3,8.8,40.4,21.6,56.8,38c16.1,16.1,28.7,34.8,37.5,55.6
			c9.1,21.5,13.7,44.5,13.7,68.1C525,373.2,520.5,395.8,511.7,417z"/>
		<path d="M672.5,213.8c-17.6-41.7-42.9-79.1-75-111.2C564.8,69.8,526.6,44.2,484,26.6C441.5,8.9,396.4,0,350,0
			c-47.2,0-93.1,9.3-136.2,27.5c-41.7,17.6-79.1,42.9-111.2,75C69.8,135.2,44.2,173.4,26.6,216C8.9,258.5,0,303.6,0,350
			c0,47.2,9.3,93.1,27.5,136.2c17.6,41.7,42.9,79.1,75,111.2c32.7,32.7,70.9,58.3,113.5,75.9c42.5,17.6,87.6,26.6,134,26.6
			c47.2,0,93.1-9.3,136.2-27.5c41.7-17.6,79.1-42.9,111.2-75c32.7-32.7,58.3-70.9,75.9-113.5c17.6-42.5,26.6-87.6,26.6-134
			C700,302.8,690.7,256.9,672.5,213.8z M608.8,457.2c-14.1,34.1-34.6,64.6-60.8,90.8c-25.7,25.7-55.7,45.9-89,60
			c-34.5,14.6-71.2,22-109,22c-37.1,0-73.2-7.1-107.2-21.2c-34.1-14.1-64.6-34.6-90.8-60.8c-25.7-25.7-45.9-55.7-60-89
			c-14.6-34.5-22-71.2-22-109c0-37.1,7.1-73.2,21.2-107.2c14.1-34.1,34.6-64.6,60.8-90.8c25.7-25.7,55.7-45.9,89-60
			c34.5-14.6,71.2-22,109-22c37.1,0,73.2,7.1,107.2,21.2c34.1,14.1,64.6,34.6,90.8,60.8c25.7,25.7,45.9,55.7,60,89
			c14.6,34.5,22,71.2,22,109C630,387.1,622.9,423.2,608.8,457.2z"/>
	</g>
</g>
</svg>
